<svg width="33" height="32" viewBox="0 0 33 32" fill="none" xmlns="http://www.w3.org/2000/svg">
<rect x="0.5" width="32" height="32" rx="16" fill="#2DC071"/>
<g clip-path="url(#clip0_1483_173)">
<path fill-rule="evenodd" clip-rule="evenodd" d="M24.2957 10.2019C24.3604 10.2658 24.4118 10.3416 24.4469 10.4251C24.482 10.5086 24.5 10.5982 24.5 10.6886C24.5 10.779 24.482 10.8685 24.4469 10.952C24.4118 11.0355 24.3604 11.1114 24.2957 11.1752L14.5578 20.7981C14.4932 20.8621 14.4164 20.9129 14.3319 20.9475C14.2474 20.9822 14.1568 21 14.0654 21C13.9739 21 13.8833 20.9822 13.7988 20.9475C13.7143 20.9129 13.6375 20.8621 13.5729 20.7981L8.70398 15.9866C8.57337 15.8576 8.5 15.6825 8.5 15.5C8.5 15.3175 8.57337 15.1424 8.70398 15.0134C8.83459 14.8843 9.01173 14.8118 9.19644 14.8118C9.38115 14.8118 9.55829 14.8843 9.6889 15.0134L14.0654 19.3395L23.3107 10.2019C23.3754 10.1379 23.4521 10.0871 23.5366 10.0525C23.6211 10.0178 23.7117 10 23.8032 10C23.8947 10 23.9853 10.0178 24.0698 10.0525C24.1543 10.0871 24.231 10.1379 24.2957 10.2019Z" fill="white"/>
</g>
<defs>
<clipPath id="clip0_1483_173">
<rect width="16" height="11" fill="white" transform="translate(8.5 10)"/>
</clipPath>
</defs>
</svg>
