<svg width="73" height="60" viewBox="0 0 73 60" fill="none" xmlns="http://www.w3.org/2000/svg">
<g clip-path="url(#clip0_1483_492)">
<path fill-rule="evenodd" clip-rule="evenodd" d="M69.375 58C69.375 58 74 58 74 53.3333C74 48.6667 69.375 34.6667 50.875 34.6667C32.375 34.6667 27.75 48.6667 27.75 53.3333C27.75 58 32.375 58 32.375 58H69.375ZM32.4767 53.3333H69.2732C69.2949 53.3308 69.3165 53.3277 69.338 53.324L69.375 53.3147C69.3658 52.0827 68.6026 48.508 65.86 45.288C63.307 42.2687 58.8208 39.3333 50.875 39.3333C42.9339 39.3333 38.4476 42.2733 35.89 45.288C33.1474 48.508 32.3796 52.0873 32.375 53.3147C32.4089 53.3213 32.4428 53.3275 32.4767 53.3333ZM50.875 25.3333C53.3283 25.3333 55.681 24.35 57.4157 22.5997C59.1504 20.8493 60.125 18.4754 60.125 16C60.125 13.5246 59.1504 11.1507 57.4157 9.40034C55.681 7.65 53.3283 6.66667 50.875 6.66667C48.4217 6.66667 46.069 7.65 44.3343 9.40034C42.5996 11.1507 41.625 13.5246 41.625 16C41.625 18.4754 42.5996 20.8493 44.3343 22.5997C46.069 24.35 48.4217 25.3333 50.875 25.3333ZM64.75 16C64.75 17.8385 64.3911 19.659 63.6938 21.3576C62.9965 23.0561 61.9745 24.5995 60.6861 25.8995C59.3977 27.1995 57.8681 28.2307 56.1847 28.9343C54.5013 29.6379 52.6971 30 50.875 30C49.0529 30 47.2487 29.6379 45.5653 28.9343C43.8819 28.2307 42.3523 27.1995 41.0639 25.8995C39.7755 24.5995 38.7535 23.0561 38.0562 21.3576C37.3589 19.659 37 17.8385 37 16C37 12.287 38.4618 8.72601 41.0639 6.10051C43.666 3.475 47.1951 2 50.875 2C54.5549 2 58.084 3.475 60.6861 6.10051C63.2882 8.72601 64.75 12.287 64.75 16ZM32.079 35.9733C30.2289 35.3855 28.3218 34.9991 26.3902 34.8207C25.3049 34.7165 24.2152 34.6651 23.125 34.6667C4.625 34.6667 0 48.6667 0 53.3333C0 56.446 1.54013 58 4.625 58H24.124C23.4384 56.5431 23.0964 54.9459 23.125 53.3333C23.125 48.62 24.8686 43.804 28.1663 39.7813C29.2901 38.4093 30.599 37.126 32.079 35.9733ZM22.755 39.3333C15.0405 39.4267 10.6606 42.32 8.14 45.288C5.37887 48.5267 4.625 52.1153 4.625 53.3333H18.5C18.5 48.4567 19.9939 43.5987 22.755 39.3333ZM6.9375 18.3333C6.9375 14.6203 8.39933 11.0593 11.0014 8.43384C13.6035 5.80833 17.1326 4.33333 20.8125 4.33333C24.4924 4.33333 28.0215 5.80833 30.6236 8.43384C33.2257 11.0593 34.6875 14.6203 34.6875 18.3333C34.6875 22.0464 33.2257 25.6073 30.6236 28.2328C28.0215 30.8583 24.4924 32.3333 20.8125 32.3333C17.1326 32.3333 13.6035 30.8583 11.0014 28.2328C8.39933 25.6073 6.9375 22.0464 6.9375 18.3333ZM20.8125 9C18.3592 9 16.0065 9.98333 14.2718 11.7337C12.5371 13.484 11.5625 15.858 11.5625 18.3333C11.5625 20.8087 12.5371 23.1827 14.2718 24.933C16.0065 26.6833 18.3592 27.6667 20.8125 27.6667C23.2658 27.6667 25.6185 26.6833 27.3532 24.933C29.0879 23.1827 30.0625 20.8087 30.0625 18.3333C30.0625 15.858 29.0879 13.484 27.3532 11.7337C25.6185 9.98333 23.2658 9 20.8125 9Z" fill="#23A6F0"/>
</g>
<defs>
<clipPath id="clip0_1483_492">
<rect width="72" height="59.2942" fill="white" transform="translate(0.5)"/>
</clipPath>
</defs>
</svg>
