<svg width="73" height="60" viewBox="0 0 73 60" fill="none" xmlns="http://www.w3.org/2000/svg">
<path fill-rule="evenodd" clip-rule="evenodd" d="M15 14.4287C15 12.4585 15.7796 10.569 17.1674 9.17582C18.5552 7.78266 20.4374 7 22.4 7H44.6C46.5626 7 48.4448 7.78266 49.8326 9.17582C51.2204 10.569 52 12.4585 52 14.4287V57.1438C51.9998 57.4797 51.9089 57.8093 51.7369 58.0975C51.5649 58.3856 51.3182 58.6215 51.0232 58.7801C50.7282 58.9387 50.3959 59.0139 50.0616 58.9979C49.7273 58.9818 49.4037 58.8751 49.1251 58.689L33.5 48.233L17.8749 58.689C17.5963 58.8751 17.2727 58.9818 16.9384 58.9979C16.6041 59.0139 16.2718 58.9387 15.9768 58.7801C15.6818 58.6215 15.4351 58.3856 15.2631 58.0975C15.0911 57.8093 15.0002 57.4797 15 57.1438V14.4287ZM22.4 10.7144C21.4187 10.7144 20.4776 11.1057 19.7837 11.8023C19.0898 12.4988 18.7 13.4436 18.7 14.4287V53.6746L32.4751 44.4555C32.7787 44.2527 33.1353 44.1445 33.5 44.1445C33.8647 44.1445 34.2213 44.2527 34.5249 44.4555L48.3 53.6746V14.4287C48.3 13.4436 47.9102 12.4988 47.2163 11.8023C46.5224 11.1057 45.5813 10.7144 44.6 10.7144H22.4Z" fill="#23A6F0"/>
<path fill-rule="evenodd" clip-rule="evenodd" d="M23 3.64292H51.6017C52.5828 3.64292 53.5237 4.02673 54.2174 4.70991C54.9111 5.39309 55.3009 6.31968 55.3009 7.28585V50.1558L56.1258 50.6949C56.4043 50.8775 56.7279 50.9822 57.0621 50.9979C57.3962 51.0137 57.7285 50.9398 58.0234 50.7843C58.3184 50.6288 58.565 50.3974 58.7369 50.1148C58.9089 49.8322 58.9998 49.509 59 49.1795V7.28585C59 5.35352 58.2205 3.50034 56.8331 2.13398C55.4456 0.767614 53.5639 0 51.6017 0L29.4069 0C28.1083 3.24892e-05 26.8325 0.3367 25.7079 0.976165C24.5832 1.61563 23.6493 2.53536 23 3.64292Z" fill="#23A6F0"/>
</svg>
